<?xml version="1.0" standalone="no"?><!DOCTYPE svg PUBLIC "-//W3C//DTD SVG 1.1//EN" "http://www.w3.org/Graphics/SVG/1.1/DTD/svg11.dtd"><svg class="icon" height="512" viewBox="0 0 1024 1024" version="1.1" xmlns="http://www.w3.org/2000/svg"><path d="M512 36.864C249.28 36.864 36.864 249.28 36.864 512S249.28 987.136 512 987.136 987.136 774.72 987.136 512 774.72 36.864 512 36.864zM373.632 328.896a142.72 142.72 0 0 1 32.128-48.896c13.952-13.952 30.72-25.152 47.488-32.128 18.176-6.976 37.76-11.2 55.872-11.2 19.584 0 39.104 4.224 55.872 11.2 18.176 6.976 34.944 18.176 47.488 32.128 13.952 13.952 25.152 30.72 32.128 48.896 6.976 18.176 11.2 37.76 11.2 57.28 0 19.584-4.224 39.104-11.2 57.28a138.24 138.24 0 0 1-32 48.96c-13.952 14.016-30.72 25.152-47.488 32.192-18.176 6.976-37.76 11.136-55.936 11.136-19.584 0-39.104-4.224-55.872-11.2a124.352 124.352 0 0 1-47.552-32.128 141.504 141.504 0 0 1-32.128-48.896 161.088 161.088 0 0 1-11.136-57.28c0-20.992 4.16-40.576 11.136-57.344z m370.368 424.896c-5.568 15.36-16.768 23.744-32.128 32.128-13.952 8.384-33.536 11.2-54.528 11.2H363.84c-20.992 0-39.104-4.224-54.528-12.608s-26.56-20.992-32.128-34.944a91.072 91.072 0 0 1 0-54.528c2.816-6.976 4.224-15.36 8.384-22.336a253.568 253.568 0 0 1 225.024-136.96c71.296 0 135.552 27.968 181.696 75.456 19.584 20.992 30.72 36.352 41.92 58.688a63.616 63.616 0 0 1 9.792 22.336c2.816 8.384 5.568 20.992 5.568 32.128 0 11.264-2.816 21.056-5.568 29.44z" fill="#F99E47" /></svg>